<svg xmlns="http://www.w3.org/2000/svg" width="1680" height="1180" viewBox="0 0 1680 1180">
<defs>
  <linearGradient id="shell" x1="0" y1="0" x2="0" y2="1"><stop offset="0" stop-color="#ffffff"/><stop offset="0.55" stop-color="#f3f7fb"/><stop offset="1" stop-color="#c9d6e2"/></linearGradient>
  <linearGradient id="arm" x1="0" y1="0" x2="0" y2="1"><stop offset="0" stop-color="#ffffff"/><stop offset="1" stop-color="#cdd9e5"/></linearGradient>
  <radialGradient id="glass" cx="0.5" cy="0.32" r="0.85"><stop offset="0" stop-color="#16263f"/><stop offset="0.62" stop-color="#0a1424"/><stop offset="1" stop-color="#05080f"/></radialGradient>
  <linearGradient id="eye" x1="0" y1="0" x2="0" y2="1"><stop offset="0" stop-color="#a7f3ff"/><stop offset="0.5" stop-color="#3fe0f5"/><stop offset="1" stop-color="#22d3ee"/></linearGradient>
  <radialGradient id="glow" cx="0.5" cy="0.5" r="0.5"><stop offset="0" stop-color="#38bdf8" stop-opacity="0.55"/><stop offset="0.45" stop-color="#22d3ee" stop-opacity="0.22"/><stop offset="1" stop-color="#22d3ee" stop-opacity="0"/></radialGradient>
  <filter id="g" x="-80%" y="-80%" width="260%" height="260%"><feGaussianBlur stdDeviation="2.2" result="b"/><feMerge><feMergeNode in="b"/><feMergeNode in="SourceGraphic"/></feMerge></filter>
  <linearGradient id="bg" x1="0" y1="0" x2="1" y2="1"><stop offset="0" stop-color="#0a0f1c"/><stop offset="1" stop-color="#0c1426"/></linearGradient>
  <linearGradient id="title" x1="0" y1="0" x2="1" y2="0"><stop offset="0" stop-color="#7dd3fc"/><stop offset="0.5" stop-color="#22d3ee"/><stop offset="1" stop-color="#8b5cf6"/></linearGradient>
</defs>
<rect width="1680" height="1180" fill="url(#bg)"/>
<ellipse cx="336" cy="120" rx="520" ry="260" fill="url(#glow)" opacity="0.4"/>
<ellipse cx="1428" cy="1060" rx="520" ry="300" fill="url(#glow)" opacity="0.3"/>
<text x="80" y="120" fill="#5fb6e8" font-family="sans-serif" font-weight="700" font-size="16" letter-spacing="4">AI DESKTOP COMPANION — CONCEPT</text>
<text x="80" y="190" fill="url(#title)" font-family="sans-serif" font-weight="800" font-size="74" letter-spacing="-2">VYRO</text>
<text x="360" y="190" fill="#cfe6fb" font-family="sans-serif" font-weight="400" font-size="26">"Your smart AI friend living on your desktop."</text>

  <g>
    <rect x="80" y="250" width="480" height="360" rx="26" fill="#0e1830" stroke="#1f3354" stroke-opacity="0.9"/>
    <rect x="80" y="250" width="480" height="360" rx="26" fill="url(#glow)" opacity="0.18"/>
    <g transform="translate(218.8 268) scale(0.92)">
   <ellipse cx="110" cy="146" rx="104" ry="104" fill="url(#glow)"/>
   <ellipse cx="110" cy="246" rx="56" ry="9" fill="#0b2233" opacity="0.18"/>
   <rect x="32" y="150" width="17" height="46" rx="8.5" fill="url(#arm)" stroke="#fff" stroke-opacity="0.7"/>
   <rect x="171" y="150" width="17" height="46" rx="8.5" fill="url(#arm)" stroke="#fff" stroke-opacity="0.7"/>
   <rect x="45" y="163" width="32" height="20" rx="10" fill="url(#arm)" stroke="#fff" stroke-opacity="0.55"/>
   <rect x="143" y="163" width="32" height="20" rx="10" fill="url(#arm)" stroke="#fff" stroke-opacity="0.55"/>
   <circle cx="59" cy="173" r="4.6" fill="#fff" opacity="0.55"/>
   <circle cx="161" cy="173" r="4.6" fill="#fff" opacity="0.55"/>
   <rect x="72" y="156" width="76" height="80" rx="34" fill="url(#shell)" stroke="#fff" stroke-opacity="0.8"/>
   <circle cx="110" cy="198" r="9" fill="url(#eye)" filter="url(#g)"/>
   <line x1="110" y1="36" x2="110" y2="22" stroke="#c9d6e2" stroke-width="3" stroke-linecap="round"/>
   <circle cx="110" cy="18" r="5" fill="url(#eye)" filter="url(#g)"/>
   <rect x="34" y="34" width="152" height="128" rx="50" fill="url(#shell)" stroke="#fff" stroke-opacity="0.85"/>
   <ellipse cx="96" cy="58" rx="42" ry="13" fill="#fff" opacity="0.55"/>
   <rect x="56" y="58" width="108" height="80" rx="34" fill="url(#glass)" stroke="#7dd3fc" stroke-opacity="0.35"/>
   <g filter="url(#g)" fill="url(#eye)" transform="translate(0 0)">
      <rect x="77" y="79" width="18" height="34" rx="9"/>
      <rect x="125" y="79" width="18" height="34" rx="9"/>
      <circle cx="83" cy="88" r="3" fill="#fff" opacity="0.65"/>
      <circle cx="131" cy="88" r="3" fill="#fff" opacity="0.65"/></g><rect x="104" y="121" width="12" height="2.6" rx="1.3" fill="#3fe0f5" opacity="0.5"/></g>
    <text x="320" y="558" text-anchor="middle" fill="#eaf6ff" font-family="sans-serif" font-weight="700" font-size="26">Idle</text>
    <text x="320" y="584" text-anchor="middle" fill="#8fb6d6" font-family="sans-serif" font-size="15">Blinks, breathes &amp; follows your cursor</text>
  </g>
  <g>
    <rect x="600" y="250" width="480" height="360" rx="26" fill="#0e1830" stroke="#1f3354" stroke-opacity="0.9"/>
    <rect x="600" y="250" width="480" height="360" rx="26" fill="url(#glow)" opacity="0.18"/>
    <g transform="translate(738.8 268) scale(0.92)">
   <ellipse cx="110" cy="146" rx="104" ry="104" fill="url(#glow)"/>
   <ellipse cx="110" cy="246" rx="56" ry="9" fill="#0b2233" opacity="0.18"/>
   <rect x="32" y="150" width="17" height="46" rx="8.5" fill="url(#arm)" stroke="#fff" stroke-opacity="0.7"/>
   <rect x="171" y="150" width="17" height="46" rx="8.5" fill="url(#arm)" stroke="#fff" stroke-opacity="0.7"/>
   <rect x="45" y="163" width="32" height="20" rx="10" fill="url(#arm)" stroke="#fff" stroke-opacity="0.55"/>
   <rect x="143" y="163" width="32" height="20" rx="10" fill="url(#arm)" stroke="#fff" stroke-opacity="0.55"/>
   <circle cx="59" cy="173" r="4.6" fill="#fff" opacity="0.55"/>
   <circle cx="161" cy="173" r="4.6" fill="#fff" opacity="0.55"/>
   <rect x="72" y="156" width="76" height="80" rx="34" fill="url(#shell)" stroke="#fff" stroke-opacity="0.8"/>
   <circle cx="110" cy="198" r="9" fill="url(#eye)" filter="url(#g)"/>
   <line x1="110" y1="36" x2="110" y2="22" stroke="#c9d6e2" stroke-width="3" stroke-linecap="round"/>
   <circle cx="110" cy="18" r="5" fill="url(#eye)" filter="url(#g)"/>
   <rect x="34" y="34" width="152" height="128" rx="50" fill="url(#shell)" stroke="#fff" stroke-opacity="0.85"/>
   <ellipse cx="96" cy="58" rx="42" ry="13" fill="#fff" opacity="0.55"/>
   <rect x="56" y="58" width="108" height="80" rx="34" fill="url(#glass)" stroke="#7dd3fc" stroke-opacity="0.35"/>
   <g filter="url(#g)" stroke="url(#eye)" stroke-width="7" stroke-linecap="round" fill="none">
      <path d="M74 101 Q 86 83 98 101"/>
      <path d="M122 101 Q 134 83 146 101"/></g><path d="M101 120 Q110 129 119 120" stroke="url(#eye)" stroke-width="4" stroke-linecap="round" fill="none" filter="url(#g)"/></g>
    <text x="840" y="558" text-anchor="middle" fill="#eaf6ff" font-family="sans-serif" font-weight="700" font-size="26">Happy</text>
    <text x="840" y="584" text-anchor="middle" fill="#8fb6d6" font-family="sans-serif" font-size="15">Greets you with a warm smile</text>
  </g>
  <g>
    <rect x="1120" y="250" width="480" height="360" rx="26" fill="#0e1830" stroke="#1f3354" stroke-opacity="0.9"/>
    <rect x="1120" y="250" width="480" height="360" rx="26" fill="url(#glow)" opacity="0.18"/>
    <g transform="translate(1258.8 268) scale(0.92)">
   <ellipse cx="110" cy="146" rx="104" ry="104" fill="url(#glow)"/>
   <ellipse cx="110" cy="246" rx="56" ry="9" fill="#0b2233" opacity="0.18"/>
   <rect x="32" y="150" width="17" height="46" rx="8.5" fill="url(#arm)" stroke="#fff" stroke-opacity="0.7"/>
   <rect x="171" y="150" width="17" height="46" rx="8.5" fill="url(#arm)" stroke="#fff" stroke-opacity="0.7"/>
   <rect x="45" y="163" width="32" height="20" rx="10" fill="url(#arm)" stroke="#fff" stroke-opacity="0.55"/>
   <rect x="143" y="163" width="32" height="20" rx="10" fill="url(#arm)" stroke="#fff" stroke-opacity="0.55"/>
   <circle cx="59" cy="173" r="4.6" fill="#fff" opacity="0.55"/>
   <circle cx="161" cy="173" r="4.6" fill="#fff" opacity="0.55"/>
   <rect x="72" y="156" width="76" height="80" rx="34" fill="url(#shell)" stroke="#fff" stroke-opacity="0.8"/>
   <circle cx="110" cy="198" r="9" fill="url(#eye)" filter="url(#g)"/>
   <line x1="110" y1="36" x2="110" y2="22" stroke="#c9d6e2" stroke-width="3" stroke-linecap="round"/>
   <circle cx="110" cy="18" r="5" fill="url(#eye)" filter="url(#g)"/>
   <rect x="34" y="34" width="152" height="128" rx="50" fill="url(#shell)" stroke="#fff" stroke-opacity="0.85"/>
   <ellipse cx="96" cy="58" rx="42" ry="13" fill="#fff" opacity="0.55"/>
   <rect x="56" y="58" width="108" height="80" rx="34" fill="url(#glass)" stroke="#7dd3fc" stroke-opacity="0.35"/>
   <g filter="url(#g)" fill="url(#eye)" transform="translate(0 -5)">
      <rect x="77" y="79" width="18" height="34" rx="9"/>
      <rect x="125" y="79" width="18" height="34" rx="9"/>
      <circle cx="83" cy="88" r="3" fill="#fff" opacity="0.65"/>
      <circle cx="131" cy="88" r="3" fill="#fff" opacity="0.65"/></g><rect x="104" y="121" width="12" height="2.6" rx="1.3" fill="#3fe0f5" opacity="0.5"/><g fill="#22d3ee"><circle cx="150" cy="50" r="3.4"/><circle cx="162" cy="42" r="4.4"/><circle cx="176" cy="32" r="5.6"/></g></g>
    <text x="1360" y="558" text-anchor="middle" fill="#eaf6ff" font-family="sans-serif" font-weight="700" font-size="26">Thinking</text>
    <text x="1360" y="584" text-anchor="middle" fill="#8fb6d6" font-family="sans-serif" font-size="15">Processing — eyes glance up</text>
  </g>
  <g>
    <rect x="80" y="650" width="480" height="360" rx="26" fill="#0e1830" stroke="#1f3354" stroke-opacity="0.9"/>
    <rect x="80" y="650" width="480" height="360" rx="26" fill="url(#glow)" opacity="0.18"/>
    <g transform="translate(218.8 668) scale(0.92)">
   <ellipse cx="110" cy="146" rx="104" ry="104" fill="url(#glow)"/>
   <ellipse cx="110" cy="246" rx="56" ry="9" fill="#0b2233" opacity="0.18"/>
   <rect x="32" y="150" width="17" height="46" rx="8.5" fill="url(#arm)" stroke="#fff" stroke-opacity="0.7"/>
   <rect x="171" y="150" width="17" height="46" rx="8.5" fill="url(#arm)" stroke="#fff" stroke-opacity="0.7"/>
   <rect x="45" y="163" width="32" height="20" rx="10" fill="url(#arm)" stroke="#fff" stroke-opacity="0.55"/>
   <rect x="143" y="163" width="32" height="20" rx="10" fill="url(#arm)" stroke="#fff" stroke-opacity="0.55"/>
   <circle cx="59" cy="173" r="4.6" fill="#fff" opacity="0.55"/>
   <circle cx="161" cy="173" r="4.6" fill="#fff" opacity="0.55"/>
   <rect x="72" y="156" width="76" height="80" rx="34" fill="url(#shell)" stroke="#fff" stroke-opacity="0.8"/>
   <circle cx="110" cy="198" r="9" fill="url(#eye)" filter="url(#g)"/>
   <line x1="110" y1="36" x2="110" y2="22" stroke="#c9d6e2" stroke-width="3" stroke-linecap="round"/>
   <circle cx="110" cy="18" r="5" fill="url(#eye)" filter="url(#g)"/>
   <rect x="34" y="34" width="152" height="128" rx="50" fill="url(#shell)" stroke="#fff" stroke-opacity="0.85"/>
   <ellipse cx="96" cy="58" rx="42" ry="13" fill="#fff" opacity="0.55"/>
   <rect x="56" y="58" width="108" height="80" rx="34" fill="url(#glass)" stroke="#7dd3fc" stroke-opacity="0.35"/>
   <g filter="url(#g)" fill="url(#eye)">
      <rect x="74" y="92" width="24" height="8" rx="4"/>
      <rect x="122" y="92" width="24" height="8" rx="4"/></g><rect x="103" y="121" width="14" height="3" rx="1.5" fill="#3fe0f5" opacity="0.8"/><rect x="56" y="92" width="108" height="3" rx="1.5" fill="#7df9ff" opacity="0.7"/></g>
    <text x="320" y="958" text-anchor="middle" fill="#eaf6ff" font-family="sans-serif" font-weight="700" font-size="26">Focus mode</text>
    <text x="320" y="984" text-anchor="middle" fill="#8fb6d6" font-family="sans-serif" font-size="15">Heads-down, distraction-free</text>
  </g>
  <g>
    <rect x="600" y="650" width="480" height="360" rx="26" fill="#0e1830" stroke="#1f3354" stroke-opacity="0.9"/>
    <rect x="600" y="650" width="480" height="360" rx="26" fill="url(#glow)" opacity="0.18"/>
    <g transform="translate(738.8 668) scale(0.92)">
   <ellipse cx="110" cy="146" rx="104" ry="104" fill="url(#glow)"/>
   <ellipse cx="110" cy="246" rx="56" ry="9" fill="#0b2233" opacity="0.18"/>
   <rect x="32" y="150" width="17" height="46" rx="8.5" fill="url(#arm)" stroke="#fff" stroke-opacity="0.7"/>
   <rect x="171" y="150" width="17" height="46" rx="8.5" fill="url(#arm)" stroke="#fff" stroke-opacity="0.7"/>
   <rect x="45" y="163" width="32" height="20" rx="10" fill="url(#arm)" stroke="#fff" stroke-opacity="0.55"/>
   <rect x="143" y="163" width="32" height="20" rx="10" fill="url(#arm)" stroke="#fff" stroke-opacity="0.55"/>
   <circle cx="59" cy="173" r="4.6" fill="#fff" opacity="0.55"/>
   <circle cx="161" cy="173" r="4.6" fill="#fff" opacity="0.55"/>
   <rect x="72" y="156" width="76" height="80" rx="34" fill="url(#shell)" stroke="#fff" stroke-opacity="0.8"/>
   <circle cx="110" cy="198" r="9" fill="url(#eye)" filter="url(#g)"/>
   <line x1="110" y1="36" x2="110" y2="22" stroke="#c9d6e2" stroke-width="3" stroke-linecap="round"/>
   <circle cx="110" cy="18" r="5" fill="url(#eye)" filter="url(#g)"/>
   <rect x="34" y="34" width="152" height="128" rx="50" fill="url(#shell)" stroke="#fff" stroke-opacity="0.85"/>
   <ellipse cx="96" cy="58" rx="42" ry="13" fill="#fff" opacity="0.55"/>
   <rect x="56" y="58" width="108" height="80" rx="34" fill="url(#glass)" stroke="#7dd3fc" stroke-opacity="0.35"/>
   <g filter="url(#g)" fill="url(#eye)">
      <rect x="72" y="80" width="28" height="32" rx="13"/>
      <rect x="120" y="80" width="28" height="32" rx="13"/>
      <circle cx="86" cy="96" r="5" fill="#06121f" opacity="0.5"/>
      <circle cx="134" cy="96" r="5" fill="#06121f" opacity="0.5"/></g><circle cx="110" cy="122" r="5" fill="none" stroke="#22d3ee" stroke-width="3.5" filter="url(#g)"/><text x="168" y="44" font-size="30" fill="#22d3ee" font-family="sans-serif" font-weight="900">!</text></g>
    <text x="840" y="958" text-anchor="middle" fill="#eaf6ff" font-family="sans-serif" font-weight="700" font-size="26">Shock</text>
    <text x="840" y="984" text-anchor="middle" fill="#8fb6d6" font-family="sans-serif" font-size="15">Caught delightfully off guard</text>
  </g>
  <g>
    <rect x="1120" y="650" width="480" height="360" rx="26" fill="#0e1830" stroke="#1f3354" stroke-opacity="0.9"/>
    <rect x="1120" y="650" width="480" height="360" rx="26" fill="url(#glow)" opacity="0.18"/>
    <g transform="translate(1258.8 668) scale(0.92)">
   <ellipse cx="110" cy="146" rx="104" ry="104" fill="url(#glow)"/>
   <ellipse cx="110" cy="246" rx="56" ry="9" fill="#0b2233" opacity="0.18"/>
   <rect x="32" y="150" width="17" height="46" rx="8.5" fill="url(#arm)" stroke="#fff" stroke-opacity="0.7"/>
   <rect x="171" y="150" width="17" height="46" rx="8.5" fill="url(#arm)" stroke="#fff" stroke-opacity="0.7"/>
   <rect x="45" y="163" width="32" height="20" rx="10" fill="url(#arm)" stroke="#fff" stroke-opacity="0.55"/>
   <rect x="143" y="163" width="32" height="20" rx="10" fill="url(#arm)" stroke="#fff" stroke-opacity="0.55"/>
   <circle cx="59" cy="173" r="4.6" fill="#fff" opacity="0.55"/>
   <circle cx="161" cy="173" r="4.6" fill="#fff" opacity="0.55"/>
   <rect x="72" y="156" width="76" height="80" rx="34" fill="url(#shell)" stroke="#fff" stroke-opacity="0.8"/>
   <circle cx="110" cy="198" r="9" fill="url(#eye)" filter="url(#g)"/>
   <line x1="110" y1="36" x2="110" y2="22" stroke="#c9d6e2" stroke-width="3" stroke-linecap="round"/>
   <circle cx="110" cy="18" r="5" fill="url(#eye)" filter="url(#g)"/>
   <rect x="34" y="34" width="152" height="128" rx="50" fill="url(#shell)" stroke="#fff" stroke-opacity="0.85"/>
   <ellipse cx="96" cy="58" rx="42" ry="13" fill="#fff" opacity="0.55"/>
   <rect x="56" y="58" width="108" height="80" rx="34" fill="url(#glass)" stroke="#7dd3fc" stroke-opacity="0.35"/>
   <g filter="url(#g)" stroke="#5fb8d6" stroke-width="6" stroke-linecap="round" fill="none" opacity="0.85">
      <path d="M74 96 Q 86 105 98 96"/>
      <path d="M122 96 Q 134 105 146 96"/></g><rect x="104" y="121" width="12" height="2.6" rx="1.3" fill="#3fe0f5" opacity="0.5"/><g fill="#9fd9ef" font-family="sans-serif" font-weight="700"><text x="150" y="58" font-size="13">z</text><text x="164" y="44" font-size="17">Z</text><text x="182" y="28" font-size="22">Z</text></g></g>
    <text x="1360" y="958" text-anchor="middle" fill="#eaf6ff" font-family="sans-serif" font-weight="700" font-size="26">Sleep</text>
    <text x="1360" y="984" text-anchor="middle" fill="#8fb6d6" font-family="sans-serif" font-size="15">Drifts off when you're away</text>
  </g>
<text x="80" y="1050" fill="#7fa6c8" font-family="sans-serif" font-weight="700" font-size="15" letter-spacing="2">PALETTE</text><rect x="80" y="1064" width="40" height="40" rx="10" fill="#0A1424" stroke="#28415f"/>
  <text x="132" y="1082" fill="#dfeefc" font-family="sans-serif" font-size="14" font-weight="700">Navy</text>
  <text x="132" y="1100" fill="#6f93b4" font-family="sans-serif" font-size="12">#0A1424</text><rect x="230" y="1064" width="40" height="40" rx="10" fill="#05080F" stroke="#28415f"/>
  <text x="282" y="1082" fill="#dfeefc" font-family="sans-serif" font-size="14" font-weight="700">Glass</text>
  <text x="282" y="1100" fill="#6f93b4" font-family="sans-serif" font-size="12">#05080F</text><rect x="380" y="1064" width="40" height="40" rx="10" fill="#22D3EE" stroke="#28415f"/>
  <text x="432" y="1082" fill="#dfeefc" font-family="sans-serif" font-size="14" font-weight="700">Cyan</text>
  <text x="432" y="1100" fill="#6f93b4" font-family="sans-serif" font-size="12">#22D3EE</text><rect x="530" y="1064" width="40" height="40" rx="10" fill="#38BDF8" stroke="#28415f"/>
  <text x="582" y="1082" fill="#dfeefc" font-family="sans-serif" font-size="14" font-weight="700">Sky</text>
  <text x="582" y="1100" fill="#6f93b4" font-family="sans-serif" font-size="12">#38BDF8</text><rect x="680" y="1064" width="40" height="40" rx="10" fill="#FFFFFF" stroke="#28415f"/>
  <text x="732" y="1082" fill="#dfeefc" font-family="sans-serif" font-size="14" font-weight="700">Shell</text>
  <text x="732" y="1100" fill="#6f93b4" font-family="sans-serif" font-size="12">#FFFFFF</text>
<text x="80" y="1160" fill="#9fc1de" font-family="sans-serif" font-weight="700" font-size="18">Cute, not childish  ·  Premium &amp; friendly  ·  Instantly recognizable  ·  Apple-level polish</text>
</svg>